<svg width="540" height="129" viewBox="0 0 540 129" fill="none" xmlns="http://www.w3.org/2000/svg">
<path d="M0 90C0 87.7909 1.79086 86 4 86H32C34.2091 86 36 87.7909 36 90V129H0V90Z" fill="#724BF2"/>
<path d="M56 56C56 53.7909 57.7909 52 60 52H88C90.2091 52 92 53.7909 92 56V129H56V56Z" fill="#724BF2"/>
<path d="M112 4C112 1.79086 113.791 0 116 0H144C146.209 0 148 1.79086 148 4V129H112V4Z" fill="#724BF2"/>
<path d="M168 47C168 44.7909 169.791 43 172 43H200C202.209 43 204 44.7909 204 47V129H168V47Z" fill="#724BF2"/>
<path d="M224 90C224 87.7909 225.791 86 228 86H256C258.209 86 260 87.7909 260 90V129H224V90Z" fill="#724BF2"/>
<path d="M280 69C280 66.7909 281.791 65 284 65H312C314.209 65 316 66.7909 316 69V129H280V69Z" fill="#724BF2"/>
<path d="M336 47C336 44.7909 337.791 43 340 43H368C370.209 43 372 44.7909 372 47V129H336V47Z" fill="#724BF2"/>
<path d="M392 20C392 17.7909 393.791 16 396 16H424C426.209 16 428 17.7909 428 20V129H392V20Z" fill="#724BF2"/>
<path d="M448 29C448 26.7909 449.791 25 452 25H480C482.209 25 484 26.7909 484 29V129H448V29Z" fill="#724BF2"/>
<path d="M504 76C504 73.7909 505.791 72 508 72H536C538.209 72 540 73.7909 540 76V129H504V76Z" fill="#724BF2"/>
</svg>
